<svg width="28" height="28" viewBox="0 0 28 28" fill="none" xmlns="http://www.w3.org/2000/svg">
<path fill-rule="evenodd" clip-rule="evenodd" d="M15.9297 0.823115C14.8763 -0.274698 13.1208 -0.274697 12.0673 0.823116L11.617 1.29242C10.9611 1.97597 9.9927 2.26186 9.07072 2.04414L8.44475 1.89633C6.97034 1.54816 5.50111 2.49204 5.20485 3.97775L5.06661 4.67104C4.88302 5.5917 4.23051 6.34886 3.34706 6.66638L2.69439 6.90095C1.27993 7.40931 0.561307 8.98243 1.10308 10.3844L1.3721 11.0806C1.70794 11.9497 1.56764 12.9309 1.00168 13.6711L0.550685 14.2609C-0.360228 15.4522 -0.114709 17.1593 1.095 18.0456L1.67807 18.4728C2.43178 19.025 2.84296 19.9303 2.76287 20.8612L2.70003 21.5916C2.5707 23.0948 3.70874 24.4078 5.21507 24.4932L5.87786 24.5308C6.81997 24.5843 7.66432 25.1299 8.10016 25.9668L8.41243 26.5665C9.11435 27.9144 10.7964 28.4081 12.1155 27.6534L12.6694 27.3365C13.4928 26.8653 14.5042 26.8653 15.3277 27.3365L15.8816 27.6534C17.2006 28.4081 18.8827 27.9144 19.5846 26.5665L19.8969 25.9668C20.3327 25.1299 21.1771 24.5843 22.1192 24.5308L22.782 24.4932C24.2883 24.4078 25.4263 23.0948 25.297 21.5916L25.2342 20.8612C25.1541 19.9303 25.5653 19.025 26.319 18.4728L26.902 18.0456C28.1117 17.1593 28.3573 15.4522 27.4464 14.2609L26.9954 13.6711C26.4294 12.9309 26.2891 11.9497 26.6249 11.0806L26.894 10.3844C27.4357 8.98243 26.7171 7.40931 25.3027 6.90095L24.65 6.66638C23.7665 6.34886 23.114 5.5917 22.9304 4.67104L22.7922 3.97775C22.4959 2.49204 21.0267 1.54816 19.5523 1.89633L18.9263 2.04414C18.0043 2.26186 17.0359 1.97597 16.38 1.29242L15.9297 0.823115ZM10.0189 14.201C9.64314 13.8173 9.03391 13.8173 8.65814 14.201C8.28237 14.5847 8.28237 15.2069 8.65814 15.5906L11.2605 18.2479C11.3949 18.3852 11.5592 18.4733 11.732 18.5124C12.0753 18.6454 12.4781 18.5708 12.7545 18.2885L18.9486 11.9636C19.3244 11.5798 19.3244 10.9577 18.9486 10.574C18.5728 10.1903 17.9636 10.1903 17.5878 10.574L12.0274 16.252L10.0189 14.201ZM14.0205 24.4076C19.716 24.4076 24.3331 19.7413 24.3331 13.9852C24.3331 8.229 19.716 3.5627 14.0205 3.5627C8.32503 3.5627 3.70794 8.229 3.70794 13.9852C3.70794 19.7413 8.32503 24.4076 14.0205 24.4076ZM14.0205 22.3231C9.46413 22.3231 5.77045 18.5901 5.77045 13.9852C5.77045 9.38023 9.46413 5.6472 14.0205 5.6472C18.5769 5.6472 22.2706 9.38023 22.2706 13.9852C22.2706 18.5901 18.5769 22.3231 14.0205 22.3231Z" fill="url(#paint0_linear_39_277)"/>
<mask id="mask0_39_277" style="mask-type:alpha" maskUnits="userSpaceOnUse" x="3" y="3" width="22" height="22">
<path d="M14.0205 4.60499C14.0205 4.02937 14.4884 3.55723 15.061 3.61591C17.0046 3.8151 18.8602 4.56932 20.4055 5.80071C22.2247 7.25033 23.508 9.2768 24.0485 11.5535C24.589 13.8302 24.3552 16.2245 23.3849 18.3506C22.4146 20.4767 20.7642 22.2106 18.6998 23.273C16.6354 24.3353 14.2772 24.6642 12.0052 24.2067C9.73321 23.7491 7.67985 22.5318 6.17604 20.7508C4.67222 18.9698 3.80555 16.729 3.71571 14.3894C3.63933 12.4005 4.12812 10.4388 5.11354 8.73221C5.40141 8.23364 6.05931 8.1327 6.52316 8.47369C6.98045 8.80985 7.07532 9.44909 6.80266 9.94685C6.07617 11.2731 5.718 12.7808 5.77667 14.3086C5.84854 16.1802 6.54188 17.9729 7.74493 19.3977C8.94798 20.8225 10.5907 21.7964 12.4082 22.1624C14.2258 22.5284 16.1124 22.2653 17.764 21.4154C19.4155 20.5655 20.7358 19.1784 21.512 17.4775C22.2883 15.7767 22.4753 13.8612 22.0429 12.0398C21.6105 10.2185 20.5839 8.59731 19.1285 7.43761C17.9472 6.49632 16.5394 5.90355 15.06 5.71366C14.489 5.64038 14.0205 5.18061 14.0205 4.60499Z" fill="white" fill-opacity="0.2"/>
</mask>
<g mask="url(#mask0_39_277)">
</g>
<defs>
<linearGradient id="paint0_linear_39_277" x1="3.06477" y1="0.316422" x2="23.2893" y2="29.2903" gradientUnits="userSpaceOnUse">
<stop stop-color="#FFD979"/>
<stop offset="1" stop-color="#ECAF17"/>
</linearGradient>
</defs>
</svg>
